<?xml version="1.0" encoding="iso-8859-1"?>
<!-- Generator: Adobe Illustrator 19.0.0, SVG Export Plug-In . SVG Version: 6.00 Build 0)  -->
<svg version="1.1" id="Capa_1" xmlns="http://www.w3.org/2000/svg" xmlns:xlink="http://www.w3.org/1999/xlink" x="0px" y="0px"
	 viewBox="0 0 512 512" style="enable-background:new 0 0 512 512;" xml:space="preserve">
<g>
	<g>
		<g>
			<path d="M100.571,416v-46.5l-87.643,87.643h46.5C82.141,457.118,100.547,438.712,100.571,416z"/>
			<polygon points="372.215,0 342.281,0 130.633,228.571 160.585,228.571 			"/>
			<path d="M155.429,416V246.857h-36.571V416c-0.038,32.806-26.623,59.391-59.429,59.429H0V512h274.286v-36.571h-59.429
				C182.051,475.391,155.467,448.806,155.429,416z"/>
			<path d="M499.071,228.571h-60.214c-0.545-0.057-1.083-0.166-1.608-0.325c-30.245-3.2-53.211-28.69-53.25-59.104V14.183
				L173.714,241.292V416c0.025,22.712,18.431,41.118,41.143,41.143h64.652l180.152-189.161L499.071,228.571z M216.777,426.603
				c-1.73,1.704-4.063,2.657-6.491,2.651c-2.432,0.024-4.771-0.932-6.491-2.652c-1.72-1.72-2.675-4.059-2.652-6.491
				c0.016-2.397,0.967-4.692,2.651-6.397c3.629-3.478,9.353-3.478,12.982,0c1.681,1.707,2.632,4.002,2.651,6.397
				C219.409,422.535,218.46,424.859,216.777,426.603z M253.474,388.134l-9.143,9.58c-3.486,3.654-9.275,3.79-12.929,0.304
				c-3.654-3.486-3.79-9.275-0.304-12.929l9.143-9.58c2.255-2.364,5.6-3.345,8.775-2.573c3.175,0.771,5.697,3.178,6.616,6.313
				C256.552,382.383,255.729,385.77,253.474,388.134z M290.045,349.821l-9.143,9.58c-3.486,3.654-9.275,3.79-12.929,0.304
				c-3.654-3.486-3.79-9.275-0.304-12.929l9.143-9.58c3.486-3.654,9.275-3.79,12.929-0.304
				C293.395,340.379,293.531,346.167,290.045,349.821z M326.616,311.509l-9.143,9.58c-3.486,3.654-9.275,3.79-12.929,0.304
				c-3.654-3.486-3.79-9.275-0.304-12.929l9.143-9.58c3.486-3.654,9.275-3.79,12.929-0.304
				C329.967,302.067,330.103,307.855,326.616,311.509z M363.188,273.196l-9.143,9.58c-2.255,2.364-5.6,3.345-8.775,2.573
				c-3.175-0.771-5.697-3.178-6.616-6.313c-0.919-3.135-0.096-6.522,2.159-8.886l9.143-9.58c3.486-3.654,9.275-3.79,12.929-0.304
				C366.538,263.754,366.674,269.542,363.188,273.196z M390.491,244.571c-1.705,1.753-4.046,2.741-6.491,2.741
				c-2.445,0-4.786-0.989-6.491-2.741c-1.719-1.683-2.677-3.996-2.651-6.402c0.015-2.425,0.965-4.75,2.651-6.491
				c3.666-3.384,9.316-3.384,12.982,0c1.683,1.744,2.633,4.068,2.651,6.491C393.164,240.575,392.207,242.886,390.491,244.571z"/>
			<polygon points="472.75,280.75 292.571,469.943 292.571,498.286 459.657,322.843 512,270.501 512,241.499 			"/>
		</g>
	</g>
</g>
<g>
</g>
<g>
</g>
<g>
</g>
<g>
</g>
<g>
</g>
<g>
</g>
<g>
</g>
<g>
</g>
<g>
</g>
<g>
</g>
<g>
</g>
<g>
</g>
<g>
</g>
<g>
</g>
<g>
</g>
</svg>
