<?xml version="1.0" encoding="iso-8859-1"?>
<!-- Generator: Adobe Illustrator 19.0.0, SVG Export Plug-In . SVG Version: 6.00 Build 0)  -->
<svg version="1.1" id="Capa_1" xmlns="http://www.w3.org/2000/svg" xmlns:xlink="http://www.w3.org/1999/xlink" x="0px" y="0px"
	 viewBox="0 0 512 512" style="enable-background:new 0 0 512 512;" xml:space="preserve">
<g>
	<g>
		<g>
			<path d="M469.333,0h-409.6C26.759,0.038,0.038,26.759,0,59.733v409.6C0.028,492.886,19.114,511.972,42.667,512h204.8
				c9.421-0.011,17.056-7.645,17.067-17.067V387.535l122.998-123.002h107.402c9.421-0.011,17.056-7.645,17.067-17.067v-204.8
				C511.972,19.114,492.886,0.028,469.333,0z M247.467,494.933h-90.329l90.329-90.331V494.933z M494.933,247.467h-90.335
				l90.335-90.338V247.467z M494.933,122.396c-0.02,6.785-2.715,13.289-7.5,18.1L377.968,249.964l-0.005,0.005L249.977,377.958
				l-0.021,0.021L140.5,487.438c-4.793,4.816-11.313,7.516-18.108,7.496H42.667c-14.132-0.015-25.585-11.468-25.6-25.6v-409.6
				c0.028-23.553,19.114-42.639,42.667-42.667h409.6c14.132,0.015,25.585,11.468,25.6,25.6V122.396z"/>
			<path d="M93.867,51.2C70.302,51.2,51.2,70.302,51.2,93.867c0.028,23.553,19.114,42.639,42.667,42.667
				c23.564,0,42.667-19.102,42.667-42.667C136.533,70.302,117.431,51.2,93.867,51.2z M93.867,119.467
				c-14.139,0-25.6-11.461-25.6-25.6c0.015-14.132,11.468-25.585,25.6-25.6c14.138,0,25.6,11.461,25.6,25.6
				C119.467,108.005,108.005,119.467,93.867,119.467z"/>
			<path d="M93.867,375.467c-23.564,0-42.667,19.103-42.667,42.667S70.302,460.8,93.867,460.8
				c23.553-0.028,42.639-19.114,42.667-42.667C136.533,394.569,117.431,375.467,93.867,375.467z M93.867,443.733
				c-14.139,0-25.6-11.461-25.6-25.6s11.461-25.6,25.6-25.6c14.138,0,25.6,11.462,25.6,25.6
				C119.451,432.265,107.999,443.718,93.867,443.733z"/>
			<path d="M418.133,51.2c-23.564,0-42.667,19.102-42.667,42.667c0.028,23.553,19.114,42.639,42.667,42.667
				c23.564,0,42.667-19.102,42.667-42.667C460.8,70.302,441.698,51.2,418.133,51.2z M418.133,119.467
				c-14.138,0-25.6-11.461-25.6-25.6c0.015-14.132,11.468-25.585,25.6-25.6c14.138,0,25.6,11.461,25.6,25.6
				C443.733,108.005,432.272,119.467,418.133,119.467z"/>
		</g>
	</g>
</g>
<g>
</g>
<g>
</g>
<g>
</g>
<g>
</g>
<g>
</g>
<g>
</g>
<g>
</g>
<g>
</g>
<g>
</g>
<g>
</g>
<g>
</g>
<g>
</g>
<g>
</g>
<g>
</g>
<g>
</g>
</svg>
