<svg id="Capa_1" enable-background="new 0 0 512 512" height="512" viewBox="0 0 512 512" width="512" xmlns="http://www.w3.org/2000/svg"><path d="m384.123 0h-363.337c-8.263 0-14.984 6.722-14.984 14.984v482.032c0 8.262 6.722 14.983 14.984 14.983h227.223c4.142 0 7.5-3.358 7.5-7.5s-3.358-7.501-7.5-7.501l-227.206.018-.017-482.015 363.32-.017.018 482.015h-102.35c-4.143 0-7.5 3.358-7.5 7.501s3.358 7.5 7.5 7.5h102.35c8.262 0 14.983-6.721 14.983-14.983v-482.033c-.001-8.262-6.722-14.984-14.984-14.984z"/><path d="m50.687 109.244c-4.142 0-7.5 3.358-7.5 7.501v310.265c0 13.392 10.895 24.287 24.287 24.287h269.042c13.392 0 24.288-10.895 24.288-24.287v-375.117c0-13.392-10.895-24.288-24.288-24.288h-269.042c-13.392 0-24.287 10.895-24.287 24.288v29.574c0 4.143 3.358 7.5 7.5 7.5s7.5-3.358 7.5-7.5v-29.574c0-5.12 4.166-9.287 9.286-9.287h269.042c5.12 0 9.287 4.166 9.287 9.287v375.116c0 5.12-4.166 9.286-9.287 9.286h-269.041c-5.12 0-9.286-4.165-9.286-9.286v-310.265c-.001-4.143-3.359-7.5-7.501-7.5z"/><path d="m498.698 323.82c4.143 0 7.5-3.358 7.5-7.5v-186.08c0-15.842-12.889-28.73-28.731-28.73s-28.73 12.889-28.73 28.73v7.887c-13.832.688-24.875 12.158-24.875 26.158v61.028c0 3.926-3.195 7.121-7.122 7.121-4.143 0-7.501 3.358-7.501 7.501s3.358 7.501 7.501 7.501c12.198 0 22.123-9.924 22.123-22.122v-61.028c0-5.724 4.323-10.451 9.874-11.106v267.707c0 10.537 8.572 19.109 19.109 19.109h2.121v22.835c0 4.143 3.358 7.501 7.5 7.501 4.143 0 7.501-3.358 7.501-7.501v-22.835h2.122c10.537 0 19.109-8.572 19.109-19.109v-71c0-4.143-3.358-7.5-7.5-7.5s-7.501 3.358-7.501 7.5v71c0 2.265-1.843 4.108-4.108 4.108h-19.244c-2.265 0-4.108-1.843-4.108-4.108v-290.647c0-7.571 6.159-13.729 13.729-13.729 7.571 0 13.73 6.159 13.73 13.729v186.08c0 4.143 3.358 7.5 7.501 7.5z"/><path d="m248.689 104.775c4.142 0 7.501-3.358 7.501-7.501s-3.359-7.5-7.501-7.5h-92.471c-4.142 0-7.5 3.358-7.5 7.5s3.358 7.501 7.5 7.501z"/><path d="m88.313 191.575c0 4.143 3.358 7.501 7.5 7.501h213.282c4.143 0 7.501-3.358 7.501-7.501s-3.358-7.501-7.501-7.501h-213.282c-4.142.001-7.5 3.358-7.5 7.501z"/><path d="m95.813 234.524h213.282c4.143 0 7.501-3.358 7.501-7.501s-3.358-7.501-7.501-7.501h-213.282c-4.142 0-7.5 3.358-7.5 7.501s3.358 7.501 7.5 7.501z"/><path d="m95.813 269.974h213.282c4.143 0 7.501-3.358 7.501-7.501s-3.358-7.5-7.501-7.5h-213.282c-4.142 0-7.5 3.358-7.5 7.5s3.358 7.501 7.5 7.501z"/><path d="m95.813 305.423h166.479c4.143 0 7.5-3.358 7.5-7.5s-3.358-7.501-7.5-7.501h-166.479c-4.142 0-7.5 3.358-7.5 7.501s3.358 7.5 7.5 7.5z"/></svg>