<svg id="Capa_1" enable-background="new 0 0 512 512" height="512" viewBox="0 0 512 512" width="512" xmlns="http://www.w3.org/2000/svg"><path d="m492.653 281.783h-3.419v-48.557c0-62.297-24.261-120.865-68.313-164.916-44.052-44.05-102.622-68.31-164.921-68.31-71.595 0-138.215 32.197-182.778 88.337-5.987 7.543 5.751 16.876 11.749 9.326 41.7-52.533 104.038-82.663 171.029-82.663 58.292 0 113.096 22.699 154.315 63.917s63.919 96.02 63.919 154.31v48.557h-125.145v-48.557c0-50.188-42.903-93.086-93.089-93.086-50.188 0-93.089 42.897-93.089 93.086v48.557h-125.145v-48.557c0-36.574 9.222-72.754 26.668-104.625 4.624-8.447-8.527-15.662-13.157-7.203-18.652 34.074-28.511 72.743-28.511 111.828v48.557h-3.419c-10.534 0-19.104 8.57-19.104 19.105v51.865c0 10.535 8.57 19.105 19.104 19.105h3.419v132.641c0 4.143 3.358 7.5 7.5 7.5h141.146c4.142 0 7.5-3.357 7.5-7.5v-132.641h3.419c10.534 0 19.104-8.57 19.104-19.105v-51.865c0-10.535-8.57-19.105-19.104-19.105h-4.42v-48.557c0-42.096 35.993-78.086 78.089-78.086s78.089 35.989 78.089 78.086v48.557h-4.42c-10.534 0-19.104 8.57-19.104 19.105v51.865c0 10.535 8.57 19.105 19.104 19.105h3.419v132.641c0 4.143 3.358 7.5 7.5 7.5h141.146c4.142 0 7.5-3.357 7.5-7.5v-44.5c0-9.63-15-9.644-15 0v37h-126.146v-125.141h126.146v49.141c0 9.63 15 9.644 15 0v-49.141h3.419c10.534 0 19.104-8.57 19.104-19.105v-51.865c0-10.535-8.57-19.106-19.104-19.106zm-418.326 75.076v-60.076h53.025v60.076zm-59.084-4.105v-51.865c0-2.264 1.841-4.105 4.104-4.105h10.919 29.061v60.076h-29.061-10.919c-2.263-.001-4.104-1.842-4.104-4.106zm148.669 144.246h-126.146v-125.141h126.146zm22.524-196.111v51.865c0 2.264-1.841 4.105-4.104 4.105h-10.919-29.061v-60.076h28.06 11.92c2.262 0 4.104 1.842 4.104 4.106zm251.237-4.106v60.076h-53.025v-60.076zm-97.085 60.076h-10.919c-2.263 0-4.104-1.842-4.104-4.105v-51.865c0-2.264 1.841-4.105 4.104-4.105h11.92 28.06v60.076h-29.061zm156.169-4.105c0 2.264-1.841 4.105-4.104 4.105h-10.919-29.061v-60.076h29.061 10.919c2.263 0 4.104 1.842 4.104 4.105z"/></svg>