<?xml version="1.0" encoding="iso-8859-1"?>
<!-- Generator: Adobe Illustrator 19.0.0, SVG Export Plug-In . SVG Version: 6.00 Build 0)  -->
<svg version="1.1" id="Layer_1" xmlns="http://www.w3.org/2000/svg" xmlns:xlink="http://www.w3.org/1999/xlink" x="0px" y="0px"
	 viewBox="0 0 512.003 512.003" style="enable-background:new 0 0 512.003 512.003;" xml:space="preserve">
<g>
	<g>
		<path d="M506.793,308.412c-1.514-3.479-2.945-6.766-3.538-9.763c-0.63-3.177-0.567-6.864-0.503-10.768
			c0.101-6.036,0.215-12.878-2.427-19.244c-2.69-6.487-7.659-11.274-12.044-15.497c-2.766-2.665-5.378-5.182-7.119-7.781
			c-1.768-2.642-3.113-6.046-4.538-9.65c-2.226-5.633-4.748-12.017-9.663-16.933c-4.916-4.915-11.302-7.439-16.935-9.664
			c-3.604-1.424-7.008-2.769-9.65-4.538c-2.599-1.74-5.115-4.353-7.78-7.119c-4.222-4.385-9.009-9.353-15.497-12.044
			c-6.367-2.641-13.21-2.525-19.246-2.427c-3.906,0.066-7.591,0.127-10.768-0.502c-2.662-0.527-5.553-1.715-8.604-3.034v-18.29
			h25.114c4.095,0,7.413-3.319,7.413-7.413c0-4.094-3.318-7.413-7.413-7.413h-14.4V45.584h1.493c4.095,0,7.413-3.319,7.413-7.413
			c0-4.094-3.318-7.413-7.413-7.413H325.76c-4.095,0-7.413,3.319-7.413,7.413c0,4.094,3.318,7.413,7.413,7.413h1.493v33.428
			c0,4.094,3.318,7.413,7.413,7.413s7.413-3.319,7.413-7.413V45.584h32.293v100.749h-32.293v-42.611
			c0-4.094-3.318-7.413-7.413-7.413s-7.413,3.319-7.413,7.413v42.611h-14.4c-4.095,0-7.413,3.319-7.413,7.413
			c0,4.094,3.318,7.413,7.413,7.413h25.107v18.309c-3.033,1.312-5.909,2.489-8.557,3.013c-3.177,0.629-6.865,0.567-10.771,0.501
			c-6.033-0.1-12.878-0.216-19.247,2.424c-4.9,2.03-8.828,5.36-12.278,8.756h-35.217c-26.83,0-49.084,19.955-52.701,45.803h-69.298
			c-10.812,0-21.393,1.962-31.453,5.835c-19.576,7.56-39.335,11.393-58.73,11.393c-10.617,0-20.589,4.132-28.07,11.626
			C4.132,276.31,0,286.28,0,296.889v61.232c0,21.877,17.793,39.675,39.665,39.675c9.795,0,19.831,0.994,29.819,2.953
			c9.689,1.912,19.428,4.747,28.952,8.429c10.028,3.872,20.611,5.836,31.452,5.836h20.846c4.095,0,7.413-3.319,7.413-7.413
			c0-4.094-3.318-7.413-7.413-7.413h-20.846c-9.008,0-17.794-1.628-26.109-4.839c-10.321-3.991-20.894-7.067-31.434-9.147
			c-10.935-2.145-21.93-3.232-32.68-3.232c-13.695,0-24.839-11.147-24.839-24.849v-61.232c0-6.645,2.587-12.887,7.292-17.585
			c4.689-4.697,10.935-7.284,17.587-7.284c21.229,0,42.785-4.168,64.063-12.386c8.347-3.213,17.135-4.842,26.12-4.842h76.197
			c4.095,0,7.413-3.319,7.413-7.413c0-21.169,17.222-38.39,38.39-38.39h14.841c-0.095,0.038-0.188,0.074-0.283,0.112
			c-5.634,2.225-12.021,4.747-16.938,9.662c-4.918,4.915-7.443,11.301-9.671,16.935c-1.424,3.604-2.771,7.008-4.541,9.65
			c-1.741,2.599-4.354,5.116-7.121,7.781c-4.386,4.224-9.356,9.012-12.047,15.499c-2.642,6.368-2.529,13.212-2.429,19.25
			c0.063,3.904,0.126,7.591-0.504,10.768c-0.593,2.997-2.023,6.283-3.539,9.764c-2.441,5.608-5.208,11.965-5.208,19.082
			c0,7.118,2.767,13.474,5.208,19.083c1.515,3.48,2.945,6.767,3.539,9.763c0.63,3.177,0.567,6.865,0.503,10.77
			c-0.1,6.037-0.212,12.881,2.429,19.248c2.346,5.652,6.419,10.012,10.329,13.834h-52.003c-4.095,0-7.413,3.319-7.413,7.413
			c0,4.094,3.318,7.413,7.413,7.413h63.641c0.589,1.366,1.158,2.799,1.74,4.269c2.228,5.634,4.753,12.02,9.67,16.935
			c4.918,4.915,11.305,7.437,16.939,9.663c3.604,1.423,7.01,2.768,9.653,4.536c2.599,1.74,5.117,4.351,7.782,7.118
			c4.225,4.384,9.015,9.352,15.504,12.042c6.367,2.639,13.209,2.525,19.248,2.424c3.905-0.065,7.594-0.127,10.77,0.5
			c2.997,0.593,6.284,2.023,9.765,3.538c5.608,2.44,11.964,5.206,19.081,5.206c7.116,0,13.471-2.766,19.078-5.207
			c3.48-1.514,6.766-2.945,9.763-3.538c3.176-0.629,6.866-0.568,10.768-0.502c6.035,0.102,12.878,0.214,19.245-2.427
			c6.487-2.69,11.273-7.659,15.497-12.043c2.664-2.766,5.181-5.379,7.781-7.12c2.642-1.769,6.045-3.114,9.65-4.538
			c5.633-2.226,12.017-4.748,16.933-9.664c4.916-4.915,7.439-11.302,9.665-16.935c1.423-3.604,2.77-7.007,4.537-9.648
			c1.741-2.599,4.353-5.115,7.119-7.78c4.385-4.224,9.354-9.01,12.045-15.498c2.641-6.366,2.527-13.208,2.427-19.245
			c-0.064-3.904-0.127-7.591,0.503-10.769c0.593-2.997,2.023-6.282,3.538-9.762c2.44-5.607,5.207-11.963,5.207-19.079
			C512,320.375,509.233,314.02,506.793,308.412z M352.786,161.16h10.873v13.093c-1.753-0.321-3.554-0.513-5.411-0.513
			c-1.874,0-3.694,0.196-5.462,0.523V161.16z M493.199,340.654c-1.761,4.048-3.584,8.234-4.487,12.8
			c-0.935,4.725-0.857,9.386-0.783,13.893c0.084,5.039,0.163,9.798-1.298,13.319c-1.506,3.632-4.969,6.968-8.635,10.5
			c-3.208,3.09-6.527,6.286-9.153,10.208c-2.653,3.963-4.357,8.277-6.006,12.449c-1.861,4.71-3.619,9.159-6.36,11.9
			c-2.74,2.74-7.188,4.498-11.898,6.358c-4.172,1.649-8.487,3.354-12.45,6.008c-3.923,2.626-7.119,5.944-10.209,9.153
			c-3.532,3.665-6.867,7.128-10.5,8.634c-3.521,1.46-8.276,1.382-13.319,1.298c-4.507-0.073-9.169-0.152-13.892,0.783
			c-4.567,0.904-8.752,2.726-12.801,4.487c-4.696,2.044-9.132,3.974-13.161,3.974c-4.031,0-8.468-1.93-13.166-3.974
			c-4.049-1.761-8.235-3.583-12.804-4.486c-3.423-0.677-6.813-0.822-10.135-0.822c-1.263,0-2.517,0.021-3.76,0.042
			c-5.036,0.083-9.8,0.165-13.322-1.296c-3.635-1.506-6.973-4.97-10.507-8.635c-3.092-3.207-6.288-6.525-10.211-9.15
			c-3.965-2.653-8.279-4.357-12.453-6.005c-4.711-1.86-9.161-3.618-11.903-6.359c-2.742-2.741-4.501-7.19-6.363-11.901
			c-1.65-4.172-3.356-8.486-6.01-12.448c-2.626-3.922-5.945-7.119-9.155-10.21c-3.667-3.532-7.129-6.867-8.637-10.5
			c-1.462-3.522-1.382-8.282-1.299-13.323c0.075-4.508,0.152-9.169-0.783-13.893c-0.904-4.567-2.726-8.752-4.488-12.801
			c-2.044-4.698-3.975-9.135-3.975-13.166s1.931-8.468,3.975-13.166c1.762-4.049,3.584-8.234,4.488-12.802
			c0.934-4.724,0.858-9.385,0.783-13.892c-0.083-5.04-0.161-9.801,1.3-13.324c1.506-3.633,4.971-6.97,8.638-10.502
			c3.208-3.09,6.526-6.286,9.154-10.207c2.655-3.963,4.36-8.278,6.01-12.45c1.863-4.71,3.622-9.159,6.363-11.9
			c2.742-2.741,7.191-4.498,11.902-6.358c4.173-1.648,8.489-3.353,12.452-6.005c3.924-2.625,7.121-5.942,10.213-9.15
			c3.533-3.665,6.87-7.127,10.504-8.634c3.522-1.461,8.281-1.379,13.323-1.296c4.51,0.077,9.17,0.154,13.895-0.781
			c4.568-0.903,8.755-2.724,12.805-4.486c4.697-2.044,9.134-3.974,13.165-3.974c4.029,0,8.465,1.931,13.162,3.974
			c4.049,1.762,8.234,3.583,12.8,4.487c4.725,0.935,9.385,0.858,13.893,0.783c5.04-0.083,9.797-0.163,13.32,1.298
			c3.632,1.506,6.968,4.969,10.499,8.635c3.091,3.208,6.286,6.526,10.208,9.153c3.964,2.654,8.278,4.359,12.451,6.007
			c4.71,1.861,9.158,3.619,11.898,6.359c2.74,2.74,4.498,7.188,6.359,11.898c1.649,4.173,3.354,8.488,6.007,12.451
			c2.626,3.922,5.944,7.119,9.153,10.209c3.665,3.532,7.128,6.867,8.634,10.5c1.461,3.522,1.381,8.28,1.298,13.319
			c-0.074,4.508-0.152,9.169,0.783,13.893c0.903,4.566,2.726,8.752,4.487,12.801c2.044,4.696,3.974,9.133,3.974,13.162
			C497.174,331.52,495.243,335.957,493.199,340.654z"/>
	</g>
</g>
<g>
	<g>
		<path d="M103.777,305.176c-2.896-2.896-7.59-2.897-10.483-0.002l-34.163,34.148c-2.896,2.894-2.897,7.588-0.003,10.483
			c1.448,1.448,3.346,2.173,5.244,2.173c1.897,0,3.794-0.724,5.241-2.171l34.163-34.148
			C106.67,312.766,106.671,308.072,103.777,305.176z"/>
	</g>
</g>
<g>
	<g>
		<path d="M146.145,305.177c-2.895-2.896-7.589-2.897-10.483-0.002L101.5,339.323c-2.896,2.894-2.897,7.588-0.003,10.483
			c1.447,1.449,3.345,2.173,5.243,2.173c1.897,0,3.794-0.724,5.241-2.171l34.163-34.148
			C149.038,312.766,149.039,308.072,146.145,305.177z"/>
	</g>
</g>
<g>
	<g>
		<path d="M188.513,305.177c-2.895-2.896-7.589-2.897-10.483-0.002l-34.163,34.148c-2.896,2.894-2.897,7.588-0.003,10.483
			c1.447,1.449,3.345,2.173,5.243,2.173c1.897,0,3.794-0.724,5.241-2.171l34.163-34.148
			C191.406,312.766,191.407,308.072,188.513,305.177z"/>
	</g>
</g>
<g>
	<g>
		<path d="M358.231,288.647c-21.425,0-38.856,17.426-38.856,38.845s17.431,38.845,38.856,38.845c4.095,0,7.413-3.319,7.413-7.413
			c0-4.094-3.318-7.413-7.413-7.413c-13.25,0-24.029-10.775-24.029-24.018c0-13.244,10.779-24.019,24.029-24.019
			c13.244,0,24.018,10.775,24.018,24.019c0,7.242-3.223,14.027-8.841,18.616c-3.172,2.59-3.643,7.259-1.054,10.431
			c2.59,3.171,7.259,3.643,10.431,1.053c9.083-7.416,14.292-18.387,14.292-30.099C397.076,306.073,379.65,288.647,358.231,288.647z"
			/>
	</g>
</g>
<g>
</g>
<g>
</g>
<g>
</g>
<g>
</g>
<g>
</g>
<g>
</g>
<g>
</g>
<g>
</g>
<g>
</g>
<g>
</g>
<g>
</g>
<g>
</g>
<g>
</g>
<g>
</g>
<g>
</g>
</svg>
