<svg id="Capa_1" enable-background="new 0 0 512 512" height="512" viewBox="0 0 512 512" width="512" xmlns="http://www.w3.org/2000/svg"><path d="m256 391.999c-74.439 0-135-60.561-135-135 0-23.695 6.231-47.01 18.02-67.424l116.98-189.574 116.979 189.574c11.79 20.414 18.021 43.729 18.021 67.424 0 74.439-60.561 135-135 135zm-91.106-187.24c-9.09 15.815-13.894 33.875-13.894 52.24 0 57.897 47.103 105 105 105s105-47.103 105-105c0-18.364-4.803-36.422-13.894-52.238l-91.106-147.635z"/><path d="m256 511.999c-65.913 0-126.198-9.93-169.75-27.962-71.286-29.515-86.25-74.499-86.25-107.038 0-42.329 24.657-77.06 71.305-100.439l13.441 26.82c-36.327 18.207-54.746 42.976-54.746 73.619 0 34.026 22.787 60.713 67.727 79.32 39.998 16.56 96.207 25.68 158.273 25.68s118.275-9.12 158.273-25.68c44.94-18.607 67.727-45.294 67.727-79.32 0-30.643-18.419-55.412-54.746-73.619l13.441-26.82c46.649 23.38 71.305 58.111 71.305 100.439 0 32.539-14.964 77.523-86.251 107.038-43.551 18.032-103.836 27.962-169.749 27.962z"/><path d="m256 451.999c-97.399 0-196-25.762-196-75 0-11.322 5.492-27.978 31.654-43.033l14.963 26.002c-12.252 7.051-16.617 13.421-16.617 17.031 0 4.837 8.973 16.952 42.932 28.185 32.779 10.843 76.485 16.815 123.068 16.815s90.289-5.971 123.068-16.815c33.959-11.233 42.932-23.348 42.932-28.185 0-3.611-4.365-9.98-16.617-17.03l14.963-26.002c26.162 15.054 31.654 31.71 31.654 43.032 0 49.238-98.601 75-196 75z"/><path d="m256 331.999v-30c24.813 0 45-20.187 45-45 0-7.564-1.799-15.234-4.813-20.519l26.061-14.861c5.644 9.897 8.752 22.462 8.752 35.38 0 41.355-33.645 75-75 75z"/></svg>